<svg xmlns="http://www.w3.org/2000/svg" viewBox="0 0 263 304" role="img" aria-label="Syntaxa">
  <g transform="translate(0.000000,304.000000) scale(0.100000,-0.100000)" fill="#c96442"><path d="M295 3026 c-115 -37 -209 -114 -261 -216 l-29 -55 -3 -924 c-3 -1033 -6 -973 68 -1072 48 -64 123 -121 198 -150 49 -20 79 -24 225 -27 l167 -4 1 -146 c0 -81 0 -199 -1 -262 0 -146 7 -164 74 -168 52 -3 65 3 138 65 25 21 78 65 119 98 40 33 141 116 224 185 82 69 179 148 215 175 l65 50 345 -3 c226 -2 369 0 415 8 200 32 347 178 375 369 6 40 7 392 4 891 -6 883 -6 887 -58 987 -33 65 -108 135 -186 175 l-65 33 -995 2 c-785 1 -1003 -1 -1035 -11z"/></g>
  <g transform="translate(0.000000,304.000000) scale(0.100000,-0.100000)" fill="#ffffff"><path d="M1490 2568 c-36 -45 -132 -164 -215 -263 -82 -99 -206 -250 -275 -335 -69 -85 -143 -175 -166 -200 -65 -73 -114 -136 -114 -148 0 -8 72 -12 248 -14 l247 -3 -3 -25 c-5 -33 -67 -219 -153 -457 -72 -202 -75 -213 -58 -213 11 0 57 48 253 270 188 212 331 371 461 515 166 183 175 194 175 205 0 6 -81 10 -236 10 l-237 0 6 43 c3 23 38 173 76 332 86 355 88 365 69 365 -7 0 -43 -37 -78 -82z"/></g>
</svg>
